<?xml version="1.0" encoding="utf-8"?>
<!-- Generator: Adobe Illustrator 18.0.0, SVG Export Plug-In . SVG Version: 6.00 Build 0)  -->
<!DOCTYPE svg PUBLIC "-//W3C//DTD SVG 1.1//EN" "http://www.w3.org/Graphics/SVG/1.1/DTD/svg11.dtd">
<svg version="1.1" id="Layer_1" xmlns="http://www.w3.org/2000/svg" xmlns:xlink="http://www.w3.org/1999/xlink" x="0px" y="0px"
	 viewBox="0 0 612 792" enable-background="new 0 0 612 792" xml:space="preserve">
<text transform="matrix(1 0 0 1 225.1891 -224.4136)" font-family="'MyriadPro-Regular'" font-size="101.0179">ASDASDA</text>
<text transform="matrix(1 0 0 1 644.4155 -224.4136)" font-family="'FontAwesome'" font-size="101.0179"></text>
<text transform="matrix(1 0 0 1 254.4351 -102.9197)" font-family="'FontAwesome'" font-size="101.0179"></text>
<g>
	<path fill="#FFFFFF" d="M946.5,10.7c0,0.6-0.2,1.1-0.6,1.5c-0.4,0.4-0.9,0.6-1.5,0.6c-0.6,0-1.1-0.2-1.5-0.6L937,6.4
		c-2,1.4-4.3,2.1-6.8,2.1c-1.6,0-3.2-0.3-4.7-0.9C924,7,922.7,6.1,921.7,5c-1.1-1.1-1.9-2.4-2.6-3.8c-0.6-1.5-0.9-3-0.9-4.7
		c0-1.6,0.3-3.2,0.9-4.7c0.6-1.5,1.5-2.8,2.6-3.8c1.1-1.1,2.4-1.9,3.8-2.6c1.5-0.6,3-0.9,4.7-0.9c1.6,0,3.2,0.3,4.7,0.9
		c1.5,0.6,2.8,1.5,3.8,2.6c1.1,1.1,1.9,2.4,2.6,3.8s0.9,3,0.9,4.7c0,2.5-0.7,4.8-2.1,6.8l5.8,5.8C946.3,9.6,946.5,10.1,946.5,10.7z
		 M935.5,1.9c1.5-1.5,2.2-3.3,2.2-5.4c0-2.1-0.7-3.9-2.2-5.4c-1.5-1.5-3.3-2.2-5.4-2.2c-2.1,0-3.9,0.7-5.4,2.2
		c-1.5,1.5-2.2,3.3-2.2,5.4c0,2.1,0.7,3.9,2.2,5.4c1.5,1.5,3.3,2.2,5.4,2.2C932.3,4.2,934.1,3.4,935.5,1.9z"/>
</g>
<g>
	<path fill="#FFFFFF" d="M780,353.4c0,0.7,0.3,1.3,0.8,1.9c0.5,0.5,1.1,0.8,1.9,0.8h5.3v4.9c-0.9,0.7-2.1,1-3.5,1h-18.1
		c-1.7,0-3-0.5-4-1.4c-1-1-1.5-2.3-1.5-3.9c0-0.7,0-1.4,0.1-2.1c0-0.7,0.1-1.5,0.3-2.3c0.1-0.8,0.3-1.6,0.6-2.2
		c0.2-0.7,0.5-1.4,0.9-2c0.4-0.7,0.8-1.2,1.3-1.7s1.1-0.8,1.8-1.1c0.7-0.3,1.5-0.4,2.3-0.4c0.3,0,0.5,0.1,0.8,0.4
		c1.1,0.8,2.2,1.5,3.2,1.9s2.2,0.6,3.4,0.6s2.4-0.2,3.4-0.6s2.1-1.1,3.2-1.9c0.3-0.2,0.6-0.4,0.8-0.4c1.8,0,3.3,0.7,4.5,2h-4.6
		c-0.7,0-1.3,0.3-1.9,0.8c-0.5,0.5-0.8,1.1-0.8,1.9v3.8H780z M781,343.7c-1.6,1.6-3.4,2.3-5.6,2.3c-2.2,0-4.1-0.8-5.6-2.3
		c-1.6-1.6-2.3-3.4-2.3-5.6s0.8-4.1,2.3-5.6c1.6-1.6,3.4-2.3,5.6-2.3c2.2,0,4.1,0.8,5.6,2.3c1.6,1.6,2.3,3.4,2.3,5.6
		C783.4,340.3,782.6,342.2,781,343.7z M795.3,348.7h7.3c0.2,0,0.3,0.1,0.5,0.2c0.1,0.1,0.2,0.3,0.2,0.5v4c0,0.2-0.1,0.3-0.2,0.5
		c-0.1,0.1-0.3,0.2-0.5,0.2h-7.3v7.3c0,0.2-0.1,0.3-0.2,0.5c-0.1,0.1-0.3,0.2-0.5,0.2h-4c-0.2,0-0.3-0.1-0.5-0.2
		c-0.1-0.1-0.2-0.3-0.2-0.5V354h-7.3c-0.2,0-0.3-0.1-0.5-0.2c-0.1-0.1-0.2-0.3-0.2-0.5v-4c0-0.2,0.1-0.3,0.2-0.5
		c0.1-0.1,0.3-0.2,0.5-0.2h7.3v-7.3c0-0.2,0.1-0.3,0.2-0.5c0.1-0.1,0.3-0.2,0.5-0.2h4c0.2,0,0.3,0.1,0.5,0.2
		c0.1,0.1,0.2,0.3,0.2,0.5V348.7L795.3,348.7z"/>
</g>
</svg>
