<?xml version="1.0" encoding="utf-8"?>
<!-- Generator: Adobe Illustrator 18.0.0, SVG Export Plug-In . SVG Version: 6.00 Build 0)  -->
<!DOCTYPE svg PUBLIC "-//W3C//DTD SVG 1.1//EN" "http://www.w3.org/Graphics/SVG/1.1/DTD/svg11.dtd">
<svg version="1.1" id="Layer_1" xmlns="http://www.w3.org/2000/svg" xmlns:xlink="http://www.w3.org/1999/xlink" x="0px" y="0px"
	 viewBox="0 0 612 792" enable-background="new 0 0 612 792" xml:space="preserve">
<text transform="matrix(1 0 0 1 225.1891 -224.4136)" font-family="'MyriadPro-Regular'" font-size="101.0179">ASDASDA</text>
<text transform="matrix(1 0 0 1 644.4155 -224.4136)" font-family="'FontAwesome'" font-size="101.0179"></text>
<text transform="matrix(1 0 0 1 254.4351 -102.9197)" font-family="'FontAwesome'" font-size="101.0179"></text>
<g>
	<g>
		<path d="M456.8,180.5h-5.9v-5.9l8-8l0,0l0.7-0.7c-0.4-0.4-0.8-0.7-1.3-1c-0.9-0.5-1.9-0.8-3-0.8c-1.9,1.9-4.2,2.8-6.9,2.8
			c-2.7,0-5-0.9-6.9-2.8c-1.1,0-2.1,0.3-3,0.8c-0.9,0.5-1.6,1.2-2.1,2c-0.5,0.8-1,1.8-1.3,2.9c-0.3,1.1-0.6,2.3-0.7,3.4
			c-0.1,1.1-0.2,2.3-0.2,3.6c0,1.6,0.5,3,1.4,4.1c0.9,1.2,2,1.7,3.3,1.7H458c1.3,0,2.4-0.6,3.3-1.7c0.9-1.2,1.4-2.5,1.4-4.1
			c0-0.7,0-1.3-0.1-2L456.8,180.5z M448.5,165.4c2.3,0,4.4-0.8,6-2.5c1.7-1.7,2.5-3.7,2.5-6c0-2.3-0.8-4.4-2.5-6
			c-1.7-1.7-3.7-2.5-6-2.5c-2.3,0-4.4,0.8-6,2.5c-1.7,1.7-2.5,3.7-2.5,6c0,2.3,0.8,4.4,2.5,6C444.2,164.6,446.2,165.4,448.5,165.4z
			 M452.3,175.1v4h4l8-8l-4-4L452.3,175.1z M455.8,177.9h-1v-1.2h-1.2v-1l0.9-0.9l2.3,2.3L455.8,177.9z M460.6,168.8
			c0.1,0,0.2,0.1,0.2,0.2c0,0.1,0,0.1-0.1,0.2l-5.2,5.2c0,0-0.1,0.1-0.2,0.1c-0.1,0-0.2-0.1-0.2-0.2c0-0.1,0-0.1,0.1-0.2l5.2-5.2
			C460.4,168.8,460.5,168.8,460.6,168.8z M466.5,167.2l-2.3-2.2c-0.2-0.2-0.5-0.4-0.9-0.4c-0.3,0-0.6,0.1-0.9,0.4l-1.6,1.6l4,4
			l1.6-1.6c0.2-0.2,0.4-0.5,0.4-0.9C466.8,167.7,466.7,167.4,466.5,167.2z"/>
	</g>
</g>
</svg>
