<?xml version="1.0" encoding="utf-8"?>
<!-- Generator: Adobe Illustrator 18.0.0, SVG Export Plug-In . SVG Version: 6.00 Build 0)  -->
<!DOCTYPE svg PUBLIC "-//W3C//DTD SVG 1.1//EN" "http://www.w3.org/Graphics/SVG/1.1/DTD/svg11.dtd">
<svg version="1.1" id="Layer_1" xmlns="http://www.w3.org/2000/svg" xmlns:xlink="http://www.w3.org/1999/xlink" x="0px" y="0px"
	 viewBox="0 0 612 792" enable-background="new 0 0 612 792" xml:space="preserve">
<text transform="matrix(1 0 0 1 225.1891 -224.4136)" font-family="'MyriadPro-Regular'" font-size="101.0179">ASDASDA</text>
<text transform="matrix(1 0 0 1 644.4155 -224.4136)" font-family="'FontAwesome'" font-size="101.0179"></text>
<text transform="matrix(1 0 0 1 706.4414 -45.9225)" font-family="'FontAwesome'" font-size="101.0179"></text>
<text transform="matrix(1 0 0 1 832.4355 -191.8164)" font-family="'FontAwesome'" font-size="101.0179"></text>
<text transform="matrix(1 0 0 1 167.4355 -95.8164)" font-family="'FontAwesome'" font-size="101.0179"></text>
<text transform="matrix(1 0 0 1 268.4351 -87.8164)" font-family="'FontAwesome'" font-size="101.0179"></text>
<text transform="matrix(1 0 0 1 423.4351 -63.8164)" font-family="'FontAwesome'" font-size="101.0179"></text>
<g>
	<g>
		<path fill="#010002" d="M855.3,218.3c1.3,0,2.4-0.4,3.4-1.2c0.1-0.4,0.3-0.7,0.5-1l1-1c0.3-0.6,0.4-1.4,0.4-2.1
			c0-1.5-0.5-2.8-1.6-3.8c-1.1-1.1-2.3-1.6-3.8-1.6s-2.8,0.5-3.8,1.6c-1.1,1.1-1.6,2.3-1.6,3.8c0,1.5,0.5,2.8,1.6,3.8
			C852.5,217.8,853.8,218.3,855.3,218.3z M849,224.6c0,0.2,0.1,0.5,0.3,0.6c0.2,0.2,0.4,0.3,0.6,0.3c0.2,0,0.5-0.1,0.6-0.3
			c0.2-0.2,0.3-0.4,0.3-0.6c0-0.2-0.1-0.5-0.3-0.6c-0.2-0.2-0.4-0.3-0.6-0.3c-0.2,0-0.5,0.1-0.6,0.3
			C849.1,224.2,849,224.4,849,224.6z M858.7,226.1c0-0.5,0.2-1,0.6-1.4l2-2c-0.1-0.1-0.1-0.2-0.2-0.2c-0.4-0.4-0.8-0.5-1.3-0.5
			c-0.5,0-0.9,0.2-1.3,0.5c-0.4,0.4-0.5,0.8-0.5,1.3v1.3c0.3,0.3,0.5,0.6,0.5,1c0,0.4-0.1,0.7-0.4,1c-0.3,0.3-0.6,0.4-1,0.4
			c-0.4,0-0.7-0.1-1-0.4c-0.3-0.3-0.4-0.6-0.4-1c0-0.4,0.2-0.7,0.5-1v-1.3c0-1,0.4-1.8,1.1-2.6c0.7-0.7,1.6-1.1,2.6-1.1v-0.7
			l-0.5-0.5c-0.2-0.2-0.3-0.4-0.4-0.6c-1.1,0.7-2.3,1.1-3.6,1.1c-1.5,0-2.9-0.5-4.2-1.5c-0.2,0.3-0.4,0.7-0.4,1.3v2.9
			c0.5,0.2,1,0.5,1.3,1c0.3,0.5,0.5,1,0.5,1.6c0,0.8-0.3,1.4-0.8,1.9c-0.5,0.5-1.2,0.8-1.9,0.8c-0.8,0-1.4-0.3-1.9-0.8
			c-0.5-0.5-0.8-1.2-0.8-1.9c0-0.6,0.2-1.1,0.5-1.6c0.3-0.5,0.8-0.8,1.3-1v-2.9c0-0.6,0.1-1.2,0.3-1.7c-0.6,0.1-1.2,0.4-1.7,0.9
			c-0.5,0.4-0.9,0.9-1.1,1.5c-0.3,0.5-0.5,1.2-0.7,1.9c-0.2,0.7-0.3,1.4-0.3,1.9c-0.1,0.6-0.1,1.2-0.1,1.8c0,1.1,0.3,2,1,2.7
			c0.7,0.6,1.6,1,2.7,1h11.7l-1.6-1.6C858.9,227.1,858.7,226.6,858.7,226.1z M869.9,221.8l3.5-3.5c0.2-0.2,0.3-0.5,0.3-0.8
			c0-0.3-0.1-0.6-0.3-0.8l-1.6-1.6c-0.2-0.2-0.5-0.3-0.8-0.3s-0.6,0.1-0.8,0.3l-3.5,3.5l-3.5-3.5c-0.2-0.2-0.5-0.3-0.8-0.3
			c-0.3,0-0.6,0.1-0.8,0.3l-1.6,1.6c-0.2,0.2-0.3,0.5-0.3,0.8c0,0.3,0.1,0.6,0.3,0.8l3.5,3.5l-3.5,3.5c-0.2,0.2-0.3,0.5-0.3,0.8
			c0,0.3,0.1,0.6,0.3,0.8l1.6,1.6c0.2,0.2,0.5,0.3,0.8,0.3c0.3,0,0.6-0.1,0.8-0.3l3.5-3.5l3.5,3.5c0.2,0.2,0.5,0.3,0.8,0.3
			s0.6-0.1,0.8-0.3l1.6-1.6c0.2-0.2,0.3-0.5,0.3-0.8c0-0.3-0.1-0.6-0.3-0.8L869.9,221.8z"/>
	</g>
</g>
</svg>
