<?xml version="1.0" encoding="utf-8"?>
<!-- Generator: Adobe Illustrator 18.0.0, SVG Export Plug-In . SVG Version: 6.00 Build 0)  -->
<!DOCTYPE svg PUBLIC "-//W3C//DTD SVG 1.1//EN" "http://www.w3.org/Graphics/SVG/1.1/DTD/svg11.dtd">
<svg version="1.1" id="Layer_1" xmlns="http://www.w3.org/2000/svg" xmlns:xlink="http://www.w3.org/1999/xlink" x="0px" y="0px"
	 viewBox="0 0 612 792" enable-background="new 0 0 612 792" xml:space="preserve">
<text transform="matrix(1 0 0 1 225.1891 -224.4136)" font-family="'MyriadPro-Regular'" font-size="101.0179">ASDASDA</text>
<text transform="matrix(1 0 0 1 644.4155 -224.4136)" font-family="'FontAwesome'" font-size="101.0179"></text>
<text transform="matrix(1 0 0 1 706.4414 -45.9225)" font-family="'FontAwesome'" font-size="101.0179"></text>
<text transform="matrix(1 0 0 1 832.4355 -191.8164)" font-family="'FontAwesome'" font-size="101.0179"></text>
<text transform="matrix(1 0 0 1 167.4355 -95.8164)" font-family="'FontAwesome'" font-size="101.0179"></text>
<text transform="matrix(1 0 0 1 268.4351 -87.8164)" font-family="'FontAwesome'" font-size="101.0179"></text>
<text transform="matrix(1 0 0 1 423.4351 -63.8164)" font-family="'FontAwesome'" font-size="101.0179"></text>
<g>
	<g>
		<path fill="#010002" d="M521,170.5c0,0.1,0,0.2,0,0.2h1.1c-0.1-0.2-0.2-0.3-0.4-0.4c-0.2-0.2-0.5-0.4-0.8-0.4
			c0,0.1,0.1,0.2,0.1,0.3C521,170.2,521,170.3,521,170.5z M517.9,170.2c0.7,0,1.4-0.3,1.9-0.8c0.5-0.5,0.8-1.2,0.8-1.9
			c0-0.7-0.3-1.4-0.8-1.9c-0.5-0.5-1.2-0.8-1.9-0.8c-0.7,0-1.4,0.3-1.9,0.8c-0.5,0.5-0.8,1.2-0.8,1.9c0,0.7,0.3,1.4,0.8,1.9
			C516.5,170,517.1,170.2,517.9,170.2z M527,171.2c0,0-0.1-0.1-0.2-0.1h-2.4v-2.4c0-0.1,0-0.1-0.1-0.2c0,0-0.1-0.1-0.2-0.1h-1.3
			c-0.1,0-0.1,0-0.2,0.1c0,0-0.1,0.1-0.1,0.2v2.4h-2.4c-0.1,0-0.1,0-0.2,0.1c0,0-0.1,0.1-0.1,0.2v1.3c0,0.1,0,0.1,0.1,0.2
			c0,0,0.1,0.1,0.2,0.1h2.4v2.4c0,0.1,0,0.1,0.1,0.2c0,0,0.1,0.1,0.2,0.1h1.3c0.1,0,0.1,0,0.2-0.1c0,0,0.1-0.1,0.1-0.2v-2.4h2.4
			c0.1,0,0.1,0,0.2-0.1c0,0,0.1-0.1,0.1-0.2v-1.3C527.1,171.3,527.1,171.2,527,171.2z M514.7,173.4c0,0.1,0,0.2,0.1,0.3
			c0.1,0.1,0.2,0.1,0.3,0.1c0.1,0,0.2,0,0.3-0.1c0.1-0.1,0.1-0.2,0.1-0.3c0-0.1,0-0.2-0.1-0.3c-0.1-0.1-0.2-0.1-0.3-0.1
			c-0.1,0-0.2,0-0.3,0.1C514.7,173.2,514.7,173.3,514.7,173.4z M521.9,173.6c0.2,0.1,0.2,0.3,0.2,0.5c0,0.2-0.1,0.3-0.2,0.5
			c-0.1,0.1-0.3,0.2-0.5,0.2c-0.2,0-0.3-0.1-0.5-0.2c-0.1-0.1-0.2-0.3-0.2-0.5c0-0.2,0.1-0.4,0.2-0.5v-0.3h-0.8
			c-0.2,0-0.3-0.1-0.5-0.2c-0.1-0.1-0.2-0.3-0.2-0.5v-0.4c0,0-0.1,0-0.1,0.1c-0.2,0.2-0.3,0.4-0.3,0.6v0.6c0.2,0.1,0.2,0.3,0.2,0.5
			c0,0.2-0.1,0.3-0.2,0.5c-0.1,0.1-0.3,0.2-0.5,0.2c-0.2,0-0.3-0.1-0.5-0.2c-0.1-0.1-0.2-0.3-0.2-0.5c0-0.2,0.1-0.4,0.2-0.5V173
			c0-0.5,0.2-0.9,0.5-1.3c0.2-0.2,0.5-0.4,0.7-0.4c0-0.1,0.1-0.2,0.2-0.3c0.1-0.1,0.2-0.2,0.4-0.2v0c0-0.3-0.1-0.5-0.2-0.7
			c-0.6,0.5-1.3,0.7-2.1,0.7c-0.8,0-1.5-0.2-2.1-0.7c-0.1,0.1-0.2,0.4-0.2,0.7v1.4c0.3,0.1,0.5,0.3,0.7,0.5c0.2,0.2,0.3,0.5,0.3,0.8
			c0,0.4-0.1,0.7-0.4,1c-0.3,0.3-0.6,0.4-1,0.4c-0.4,0-0.7-0.1-1-0.4c-0.3-0.3-0.4-0.6-0.4-1c0-0.3,0.1-0.5,0.2-0.8
			c0.2-0.2,0.4-0.4,0.7-0.5v-1.4c0-0.3,0.1-0.6,0.2-0.8c-0.3,0.1-0.6,0.2-0.8,0.4c-0.2,0.2-0.4,0.5-0.6,0.7
			c-0.1,0.3-0.2,0.6-0.3,0.9c-0.1,0.4-0.1,0.7-0.2,1c0,0.3,0,0.6,0,0.9c0,0.6,0.2,1,0.5,1.3c0.3,0.3,0.8,0.5,1.4,0.5h6.2
			c0.5,0,0.9-0.1,1.3-0.4v-1.9h-0.3V173.6z"/>
	</g>
</g>
</svg>
