<?xml version="1.0" encoding="utf-8"?>
<!-- Generator: Adobe Illustrator 21.0.0, SVG Export Plug-In . SVG Version: 6.00 Build 0)  -->
<svg version="1.1" id="Layer_1" xmlns="http://www.w3.org/2000/svg" xmlns:xlink="http://www.w3.org/1999/xlink" x="0px" y="0px"
	 viewBox="0 0 72.7 84.9" style="enable-background:new 0 0 72.7 84.9;" xml:space="preserve">
<style type="text/css">
	.st0{fill:#FFFFFF;}
</style>
<g>
	<path class="st0" d="M-45.8,52.1c0,3.8-2.8,6.9-6.3,6.9h-15.7c-3.5,0-6.3-3.1-6.3-6.9c0-8.4,3.6-11,6.2-11.7
		c-0.9-1.4-1.4-3.2-1.4-5c0-5.2,4.3-9.4,9.5-9.4s9.4,4.3,9.4,9.4c0,1.8-0.5,3.5-1.4,5C-49.3,41.1-45.8,43.7-45.8,52.1z M-48.1,52.1
		c0-5.8-1.9-9.4-5.6-9.6c-1.7,1.4-3.8,2.3-6.2,2.3c-2.4,0-4.6-0.9-6.2-2.3c-3.7,0.2-5.6,3.8-5.6,9.6c0,2.5,1.8,4.5,3.9,4.5h15.8
		C-49.9,56.6-48.1,54.6-48.1,52.1z M-67,35.3c0,3.9,3.2,7.1,7.1,7.1s7.1-3.2,7.1-7.1c0-3.9-3.2-7.1-7.1-7.1S-67,31.4-67,35.3z"/>
</g>
<text transform="matrix(1 0 0 1 26.75 -31.25)" style="font-family:'MyriadPro-Regular'; font-size:12px;">ASDASDA</text>
<text transform="matrix(1 0 0 1 76.55 -31.25)" style="font-family:'FontAwesome'; font-size:12px;"></text>
<g>
	<path class="st0" d="M-12.5,57.4c0,1.3-1.1,2.4-2.4,2.4h-23.6c-1.3,0-2.4-1.1-2.4-2.4V43.2c0-1.3,1.1-2.4,2.4-2.4h0.8v-4.7
		c0-6,5-11,11-11s11,5,11,11v4.7h0.8c1.3,0,2.4,1.1,2.4,2.4L-12.5,57.4L-12.5,57.4z M-20.3,40.9v-4.7c0-3.5-2.8-6.3-6.3-6.3
		s-6.3,2.8-6.3,6.3v4.7H-20.3z"/>
</g>
</svg>
