<?xml version="1.0" encoding="utf-8"?>
<!-- Generator: Adobe Illustrator 18.0.0, SVG Export Plug-In . SVG Version: 6.00 Build 0)  -->
<!DOCTYPE svg PUBLIC "-//W3C//DTD SVG 1.1//EN" "http://www.w3.org/Graphics/SVG/1.1/DTD/svg11.dtd">
<svg version="1.1" id="Layer_1" xmlns="http://www.w3.org/2000/svg" xmlns:xlink="http://www.w3.org/1999/xlink" x="0px" y="0px"
	 viewBox="0 0 612 792" enable-background="new 0 0 612 792" xml:space="preserve">
<text transform="matrix(1 0 0 1 225.1891 -224.4136)" font-family="'MyriadPro-Regular'" font-size="101.0179">ASDASDA</text>
<text transform="matrix(1 0 0 1 644.4155 -224.4136)" font-family="'FontAwesome'" font-size="101.0179"></text>
<text transform="matrix(1 0 0 1 706.4414 -45.9225)" font-family="'FontAwesome'" font-size="101.0179"></text>
<text transform="matrix(1 0 0 1 832.4355 -191.8164)" font-family="'FontAwesome'" font-size="101.0179"></text>
<text transform="matrix(1 0 0 1 167.4355 -95.8164)" font-family="'FontAwesome'" font-size="101.0179"></text>
<text transform="matrix(1 0 0 1 268.4351 -87.8164)" font-family="'FontAwesome'" font-size="101.0179"></text>
<text transform="matrix(1 0 0 1 423.4351 -63.8164)" font-family="'FontAwesome'" font-size="101.0179"></text>
<g>
	<g>
		<path d="M492.5,231.9c0-0.1,0-0.2-0.1-0.3c-0.1-0.1-0.2-0.1-0.3-0.1h-0.9c-0.1,0-0.2,0-0.3,0.1c-0.1,0.1-0.1,0.2-0.1,0.3v0.9
			c0,0.1,0,0.2,0.1,0.3c0.1,0.1,0.2,0.1,0.3,0.1h0.9c0.1,0,0.2,0,0.3-0.1c0.1-0.1,0.1-0.2,0.1-0.3V231.9z M492.5,235.5
			c0-0.1,0-0.2-0.1-0.3c-0.1-0.1-0.2-0.1-0.3-0.1h-0.9c-0.1,0-0.2,0-0.3,0.1c-0.1,0.1-0.1,0.2-0.1,0.3v0.9c0,0.1,0,0.2,0.1,0.3
			c0.1,0.1,0.2,0.1,0.3,0.1h0.9c0.1,0,0.2,0,0.3-0.1c0.1-0.1,0.1-0.2,0.1-0.3V235.5z M488.4,242.3h-0.9c-0.1,0-0.2,0-0.3,0.1
			c-0.1,0.1-0.1,0.2-0.1,0.3v0.9c0,0.1,0,0.2,0.1,0.3c0.1,0.1,0.2,0.1,0.3,0.1h0.9c0.1,0,0.2,0,0.3-0.1c0.1-0.1,0.1-0.2,0.1-0.3
			v-0.9c0-0.1,0-0.2-0.1-0.3C488.7,242.3,488.5,242.3,488.4,242.3z M492.5,239.1c0-0.1,0-0.2-0.1-0.3c-0.1-0.1-0.2-0.1-0.3-0.1h-0.9
			c-0.1,0-0.2,0-0.3,0.1c-0.1,0.1-0.1,0.2-0.1,0.3v0.9c0,0.1,0,0.2,0.1,0.3c0.1,0.1,0.2,0.1,0.3,0.1h0.9c0.1,0,0.2,0,0.3-0.1
			c0.1-0.1,0.1-0.2,0.1-0.3V239.1z M492,245.9h-0.9c-0.1,0-0.2,0-0.3,0.1c-0.1,0.1-0.1,0.2-0.1,0.3v0.9c0,0.1,0,0.2,0.1,0.3
			c0.1,0.1,0.2,0.1,0.3,0.1h0.2l1.2-1.2v-0.2c0-0.1,0-0.2-0.1-0.3C492.3,245.9,492.2,245.9,492,245.9z M488.9,235.5
			c0-0.1,0-0.2-0.1-0.3c-0.1-0.1-0.2-0.1-0.3-0.1h-0.9c-0.1,0-0.2,0-0.3,0.1c-0.1,0.1-0.1,0.2-0.1,0.3v0.9c0,0.1,0,0.2,0.1,0.3
			c0.1,0.1,0.2,0.1,0.3,0.1h0.9c0.1,0,0.2,0,0.3-0.1c0.1-0.1,0.1-0.2,0.1-0.3V235.5z M488.9,248.2c0-0.1,0-0.2-0.1-0.3
			c-0.1-0.1-0.2-0.1-0.3-0.1h-4.5c-0.1,0-0.2,0-0.3,0.1c-0.1,0.1-0.1,0.2-0.1,0.3v3.2H478v-21.7h0c0,0.7,0.6,1.2,1.3,1.2H493
			c0.7,0,1.2-0.5,1.3-1.2h0v15.1l1.8-1.8v-14.2c0-0.2-0.1-0.5-0.3-0.6c-0.2-0.2-0.4-0.3-0.6-0.3h-0.9v-1.7c0-0.7-0.6-1.3-1.3-1.3
			h-13.7c-0.7,0-1.3,0.6-1.3,1.3v1.7h-0.9c-0.2,0-0.5,0.1-0.6,0.3c-0.2,0.2-0.3,0.4-0.3,0.6v23.5c0,0.2,0.1,0.5,0.3,0.6
			c0.2,0.2,0.4,0.3,0.6,0.3h12.7v-1.8h-0.9V248.2z M490.7,228.4c-0.1-0.1-0.3-0.2-0.7-0.2c-0.6-0.1-1-0.3-1.2-0.5
			c-0.2-0.2-0.4-0.5-0.4-0.8c0-0.2,0.1-0.4,0.2-0.6c0.1-0.2,0.3-0.3,0.6-0.4c0.2-0.1,0.6-0.2,1-0.2c0.5,0,0.9,0.1,1.2,0.3
			c0.3,0.2,0.4,0.5,0.5,0.9l-1.2,0.1c0-0.2-0.1-0.3-0.2-0.4s-0.2-0.1-0.4-0.1c-0.1,0-0.3,0-0.3,0.1c-0.1,0.1-0.1,0.1-0.1,0.2
			c0,0.1,0,0.1,0.1,0.2c0.1,0.1,0.2,0.1,0.4,0.2c0.6,0.1,1,0.2,1.2,0.4c0.2,0.1,0.4,0.3,0.5,0.5c0.1,0.2,0.2,0.4,0.2,0.6
			c0,0.3-0.1,0.5-0.2,0.7c-0.1,0.2-0.4,0.4-0.6,0.5c-0.3,0.1-0.6,0.2-1,0.2c-0.7,0-1.2-0.1-1.5-0.4c-0.3-0.3-0.4-0.6-0.5-1l1.2-0.1
			c0,0.2,0.1,0.3,0.2,0.5c0.1,0.2,0.3,0.3,0.6,0.3c0.2,0,0.3,0,0.4-0.1c0.1-0.1,0.1-0.2,0.1-0.3
			C490.9,228.6,490.8,228.5,490.7,228.4z M484.4,225.7h2.1c0.5,0,0.8,0.1,1,0.3c0.2,0.2,0.3,0.5,0.3,0.9c0,0.4-0.1,0.7-0.4,1
			c-0.3,0.2-0.6,0.4-1.1,0.4h-0.7v1.5h-1.3V225.7z M480.2,225.7h3.4v0.9h-2.1v0.7h2v0.8h-2v0.8h2.2v0.9h-3.5V225.7z M486.5,227.4
			c0.1-0.1,0.1-0.2,0.1-0.3c0-0.1,0-0.2-0.1-0.3c-0.1-0.1-0.2-0.1-0.5-0.1h-0.4v0.9h0.3C486.2,227.5,486.4,227.5,486.5,227.4z
			 M492.5,242.7c0-0.1,0-0.2-0.1-0.3c-0.1-0.1-0.2-0.1-0.3-0.1h-0.9c-0.1,0-0.2,0-0.3,0.1c-0.1,0.1-0.1,0.2-0.1,0.3v0.9
			c0,0.1,0,0.2,0.1,0.3c0.1,0.1,0.2,0.1,0.3,0.1h0.9c0.1,0,0.2,0,0.3-0.1c0.1-0.1,0.1-0.2,0.1-0.3V242.7z M488.9,239.1
			c0-0.1,0-0.2-0.1-0.3c-0.1-0.1-0.2-0.1-0.3-0.1h-0.9c-0.1,0-0.2,0-0.3,0.1c-0.1,0.1-0.1,0.2-0.1,0.3v0.9c0,0.1,0,0.2,0.1,0.3
			c0.1,0.1,0.2,0.1,0.3,0.1h0.9c0.1,0,0.2,0,0.3-0.1c0.1-0.1,0.1-0.2,0.1-0.3V239.1z M481.6,231.9c0-0.1,0-0.2-0.1-0.3
			c-0.1-0.1-0.2-0.1-0.3-0.1h-0.9c-0.1,0-0.2,0-0.3,0.1c-0.1,0.1-0.1,0.2-0.1,0.3v0.9c0,0.1,0,0.2,0.1,0.3c0.1,0.1,0.2,0.1,0.3,0.1
			h0.9c0.1,0,0.2,0,0.3-0.1c0.1-0.1,0.1-0.2,0.1-0.3V231.9z M481.6,235.5c0-0.1,0-0.2-0.1-0.3c-0.1-0.1-0.2-0.1-0.3-0.1h-0.9
			c-0.1,0-0.2,0-0.3,0.1c-0.1,0.1-0.1,0.2-0.1,0.3v0.9c0,0.1,0,0.2,0.1,0.3c0.1,0.1,0.2,0.1,0.3,0.1h0.9c0.1,0,0.2,0,0.3-0.1
			c0.1-0.1,0.1-0.2,0.1-0.3V235.5z M495.8,252.9c0.1-0.1,0.2-0.2,0.2-0.4l-0.6,0.6C495.6,253,495.7,253,495.8,252.9z M490.7,249.6
			v3.6h3.6l7.2-7.2l-3.6-3.6L490.7,249.6z M493.8,252h-0.9v-1.1h-1.1V250l0.8-0.8l2,2L493.8,252z M498.1,243.9
			c0.1,0,0.2,0.1,0.2,0.2c0,0.1,0,0.1-0.1,0.1l-4.7,4.7c0,0-0.1,0.1-0.1,0.1c-0.1,0-0.2-0.1-0.2-0.2c0-0.1,0-0.1,0.1-0.1l4.7-4.7
			C498,243.9,498,243.9,498.1,243.9z M481.6,239.1c0-0.1,0-0.2-0.1-0.3c-0.1-0.1-0.2-0.1-0.3-0.1h-0.9c-0.1,0-0.2,0-0.3,0.1
			c-0.1,0.1-0.1,0.2-0.1,0.3v0.9c0,0.1,0,0.2,0.1,0.3c0.1,0.1,0.2,0.1,0.3,0.1h0.9c0.1,0,0.2,0,0.3-0.1c0.1-0.1,0.1-0.2,0.1-0.3
			V239.1z M503.4,242.4l-2-2c-0.2-0.2-0.5-0.3-0.8-0.3c-0.3,0-0.6,0.1-0.8,0.3l-1.4,1.4l3.6,3.6l1.4-1.4c0.2-0.2,0.3-0.5,0.3-0.8
			C503.7,242.9,503.6,242.7,503.4,242.4z M488.9,231.9c0-0.1,0-0.2-0.1-0.3c-0.1-0.1-0.2-0.1-0.3-0.1h-0.9c-0.1,0-0.2,0-0.3,0.1
			c-0.1,0.1-0.1,0.2-0.1,0.3v0.9c0,0.1,0,0.2,0.1,0.3c0.1,0.1,0.2,0.1,0.3,0.1h0.9c0.1,0,0.2,0,0.3-0.1c0.1-0.1,0.1-0.2,0.1-0.3
			V231.9z M484.8,242.3h-0.9c-0.1,0-0.2,0-0.3,0.1c-0.1,0.1-0.1,0.2-0.1,0.3v0.9c0,0.1,0,0.2,0.1,0.3c0.1,0.1,0.2,0.1,0.3,0.1h0.9
			c0.1,0,0.2,0,0.3-0.1c0.1-0.1,0.1-0.2,0.1-0.3v-0.9c0-0.1,0-0.2-0.1-0.3C485,242.3,484.9,242.3,484.8,242.3z M485.3,235.5
			c0-0.1,0-0.2-0.1-0.3c-0.1-0.1-0.2-0.1-0.3-0.1h-0.9c-0.1,0-0.2,0-0.3,0.1c-0.1,0.1-0.1,0.2-0.1,0.3v0.9c0,0.1,0,0.2,0.1,0.3
			c0.1,0.1,0.2,0.1,0.3,0.1h0.9c0.1,0,0.2,0,0.3-0.1c0.1-0.1,0.1-0.2,0.1-0.3V235.5z M485.3,239.1c0-0.1,0-0.2-0.1-0.3
			c-0.1-0.1-0.2-0.1-0.3-0.1h-0.9c-0.1,0-0.2,0-0.3,0.1c-0.1,0.1-0.1,0.2-0.1,0.3v0.9c0,0.1,0,0.2,0.1,0.3c0.1,0.1,0.2,0.1,0.3,0.1
			h0.9c0.1,0,0.2,0,0.3-0.1c0.1-0.1,0.1-0.2,0.1-0.3V239.1z M481.6,242.7c0-0.1,0-0.2-0.1-0.3c-0.1-0.1-0.2-0.1-0.3-0.1h-0.9
			c-0.1,0-0.2,0-0.3,0.1c-0.1,0.1-0.1,0.2-0.1,0.3v0.9c0,0.1,0,0.2,0.1,0.3c0.1,0.1,0.2,0.1,0.3,0.1h0.9c0.1,0,0.2,0,0.3-0.1
			c0.1-0.1,0.1-0.2,0.1-0.3V242.7z M481.2,245.9h-0.9c-0.1,0-0.2,0-0.3,0.1c-0.1,0.1-0.1,0.2-0.1,0.3v0.9c0,0.1,0,0.2,0.1,0.3
			c0.1,0.1,0.2,0.1,0.3,0.1h0.9c0.1,0,0.2,0,0.3-0.1c0.1-0.1,0.1-0.2,0.1-0.3v-0.9c0-0.1,0-0.2-0.1-0.3
			C481.4,245.9,481.3,245.9,481.2,245.9z M485.3,231.9c0-0.1,0-0.2-0.1-0.3c-0.1-0.1-0.2-0.1-0.3-0.1h-0.9c-0.1,0-0.2,0-0.3,0.1
			c-0.1,0.1-0.1,0.2-0.1,0.3v0.9c0,0.1,0,0.2,0.1,0.3c0.1,0.1,0.2,0.1,0.3,0.1h0.9c0.1,0,0.2,0,0.3-0.1c0.1-0.1,0.1-0.2,0.1-0.3
			V231.9z"/>
	</g>
</g>
</svg>
